<svg xmlns="http://www.w3.org/2000/svg" width="2000" height="1999" viewBox="0 0 2000 1999" version="1.1"><path d="M 616.763 541.033 C 609.323 542.286, 602.502 544.854, 598.050 548.079 C 588.086 555.297, 490.792 637.419, 487.673 641.244 C 482.174 647.988, 482.041 648.316, 441.442 755 C 393.030 882.214, 388.376 896.075, 381.834 932.500 L 379.500 945.500 379.500 1066.500 L 379.500 1187.500 381.810 1193.218 C 384.526 1199.941, 390.727 1205.929, 397.805 1208.663 L 402.500 1210.477 469 1210.806 C 556.732 1211.241, 538.245 1217.841, 605.500 1162.074 C 672.627 1106.414, 668.791 1110.971, 669.754 1085.750 L 670.280 1072 681.140 1072 L 692 1072 692 1127.395 L 692 1182.789 693.976 1189.186 C 697.409 1200.301, 705.405 1207.246, 717.799 1209.876 C 726.820 1211.790, 853.984 1211.416, 861.519 1209.453 C 873.843 1206.243, 980.055 1117.961, 985.152 1106.691 L 987.500 1101.500 987.500 981 C 987.500 850.840, 987.713 856.601, 981.903 829.839 C 975.588 800.749, 971.403 788.957, 917.547 648.500 C 877.506 544.070, 879.077 546.727, 854.227 541.460 C 846.699 539.865, 626.058 539.468, 616.763 541.033 M 1174.270 541.028 C 1165.413 542.830, 1160.591 546.424, 1111.988 587.445 C 1053.722 636.622, 1053.421 636.896, 1050.084 644 L 1047.500 649.500 1047.500 919 L 1047.500 1188.500 1050.093 1194 C 1053.424 1201.063, 1057.972 1205.429, 1064.938 1208.249 L 1070.500 1210.500 1140 1210.817 C 1213.300 1211.152, 1216.530 1210.991, 1224.500 1206.612 C 1241.368 1197.345, 1337.912 1113.407, 1341.119 1105.220 L 1343.360 1099.500 1343.782 1075.276 L 1344.204 1051.052 1347.352 1050.578 C 1349.083 1050.318, 1355 1049.839, 1360.500 1049.515 C 1398.317 1047.287, 1438.517 1034.691, 1462.263 1017.631 C 1474.311 1008.976, 1577.044 923.122, 1583.789 916.073 C 1604.377 894.555, 1616.247 865.016, 1620.042 825.849 C 1621.903 806.647, 1620.778 678.096, 1618.639 665.500 C 1605.808 589.934, 1563.355 554.037, 1473 542.352 L 1459.500 540.606 1319 540.387 C 1241.725 540.266, 1176.596 540.555, 1174.270 541.028 M 616 549.362 C 603.070 552.171, 594.457 559.523, 589.178 572.258 C 580.812 592.440, 512.981 770.877, 507.926 786 C 501.274 805.901, 495.129 828.935, 491.785 846.500 L 489.500 858.500 489.500 979.500 L 489.500 1100.500 491.653 1104.500 C 494.357 1109.524, 497.427 1112.408, 502.514 1114.702 L 506.500 1116.500 572.877 1116.784 C 653.348 1117.129, 652.721 1117.221, 658.878 1104.091 L 661.500 1098.500 661.794 1038.250 L 662.088 978 732.044 978 L 802 978 802 1036.818 C 802 1124.935, 792.473 1116.500, 892 1116.500 C 973.183 1116.500, 970.761 1116.837, 977.294 1104.624 L 979.500 1100.500 979.500 980 L 979.500 859.500 977.160 846.500 C 970.510 809.553, 967.354 800.279, 914.537 662.500 C 871.033 549.015, 873.842 554.240, 853.800 549.515 C 845.422 547.540, 625.041 547.398, 616 549.362 M 1173.939 549.342 C 1154.306 554.735, 1155.904 528.588, 1156.229 839 L 1156.500 1097.500 1158.269 1102.031 C 1160.554 1107.881, 1164.179 1111.726, 1169.907 1114.376 L 1174.500 1116.500 1246 1116.500 C 1322.225 1116.500, 1320.193 1116.621, 1327.378 1111.666 C 1328.961 1110.574, 1331.436 1107.165, 1332.878 1104.091 L 1335.500 1098.500 1335.782 1027.750 L 1336.064 957 1392.978 957 C 1473.239 957, 1497.582 954.398, 1529.801 942.375 C 1576.569 924.923, 1605.342 884.340, 1611.955 826.500 C 1613.716 811.096, 1613.313 689.489, 1611.454 675.301 C 1601.492 599.282, 1559.932 561.501, 1474 550.346 L 1460.500 548.593 1319.500 548.341 C 1208.985 548.143, 1177.514 548.360, 1173.939 549.342 M 680.470 620.458 C 655.677 624.963, 652.226 630.718, 611.205 736 C 569.586 842.818, 571.701 830.345, 572.205 966 L 572.500 1045.500 576.250 1045.810 L 580 1046.121 580 978.060 L 580 910 734.500 910 L 889 910 889 978 L 889 1046 892.537 1046 L 896.074 1046 895.759 947.750 L 895.444 849.500 893.228 838.350 C 888.724 815.688, 884.721 804.826, 854.961 734.500 C 809.763 627.693, 807.433 623.988, 783 620.060 C 773.335 618.506, 689.418 618.832, 680.470 620.458 M 1245 832.500 L 1245 1046 1249 1046 L 1253 1046 1253 968.051 L 1253 890.101 1349.250 889.720 L 1445.500 889.338 1456.500 887.230 C 1519.927 875.071, 1533.500 851.851, 1533.500 755.500 L 1533.500 703.500 1531.178 692.031 C 1524.056 656.857, 1507.047 637.586, 1473.500 626.683 C 1451.825 619.639, 1440.652 619.019, 1335.250 619.009 L 1245 619 1245 832.500 M 681.369 628.493 C 660.509 633.029, 658.142 637.162, 619.215 737 C 582.579 830.964, 581.689 834.230, 580.340 879.750 L 579.681 902 734.340 902 L 889 902 888.991 891.750 C 888.966 862.523, 885.864 837.621, 879.493 815.500 C 876.760 806.008, 824.524 681.306, 815.404 662.500 C 804.430 639.870, 797.391 632.045, 785.124 628.844 C 776.373 626.560, 691.574 626.273, 681.369 628.493 M 1253 754.491 L 1253 882.085 1348.750 881.758 L 1444.500 881.431 1454 879.630 C 1512.939 868.456, 1526.003 846.028, 1525.997 756.026 C 1525.992 676.732, 1518.221 655.810, 1482.500 638.924 C 1459.301 627.957, 1457.066 627.765, 1347.250 627.298 L 1253 626.897 1253 754.491 M 1334 755.500 L 1334 815 1373.790 815 C 1439.593 815, 1443.015 812.059, 1442.992 755.526 C 1442.970 698.799, 1439.773 696.031, 1374.250 696.012 L 1334 696 1334 755.500 M 714.028 703.630 C 712.308 705.077, 709.862 708.339, 708.592 710.880 C 706.189 715.686, 669.602 832.935, 670.291 833.624 C 670.506 833.839, 698.333 833.899, 732.129 833.758 L 793.577 833.500 774.998 773.445 C 751.079 696.131, 754.028 701, 731.126 701 L 717.153 701 714.028 703.630 M 527 1383.545 L 527 1398.212 524.117 1395.126 C 514.612 1384.950, 498.642 1389.377, 493.906 1403.500 C 485.423 1428.796, 508.363 1453.156, 523.950 1435.404 L 527 1431.930 527 1435.965 L 527 1440 531.013 1440 L 535.026 1440 534.763 1404.750 L 534.500 1369.500 530.750 1369.190 L 527 1368.879 527 1383.545 M 895.714 1369.619 C 895.321 1370.012, 895 1386.008, 895 1405.167 L 895 1440 899 1440 L 903 1440 903 1435.923 L 903 1431.847 905.703 1435.059 C 920.950 1453.179, 943.668 1429.988, 936.048 1404.082 C 931.732 1389.406, 911.587 1384.320, 904.814 1396.196 C 903.669 1398.203, 903.435 1396.629, 903 1384 L 902.500 1369.500 899.464 1369.203 C 897.794 1369.039, 896.107 1369.227, 895.714 1369.619 M 1236.667 1369.667 C 1236.300 1370.033, 1236 1371.608, 1236 1373.167 L 1236 1376 1244.500 1376 L 1253 1376 1253 1404.500 L 1253 1433 1244.500 1433 L 1236 1433 1236 1436.500 L 1236 1440 1257 1440 L 1278 1440 1278 1436.500 L 1278 1433 1269.500 1433 L 1261 1433 1261 1401 L 1261 1369 1249.167 1369 C 1242.658 1369, 1237.033 1369.300, 1236.667 1369.667 M 379 1406.448 L 379 1440 382.500 1440 L 386 1440 386 1412.800 C 386 1396.254, 386.360 1385.972, 386.918 1386.550 C 387.424 1387.072, 390.747 1394.654, 394.304 1403.397 C 399.644 1416.522, 400.947 1418.964, 401.773 1417.397 C 402.324 1416.354, 405.329 1409.200, 408.451 1401.500 C 411.573 1393.800, 414.548 1387.072, 415.063 1386.550 C 415.646 1385.959, 416 1395.885, 416 1412.800 L 416 1440 419.500 1440 L 423 1440 423 1406.500 L 423 1373 418.179 1373 L 413.359 1373 407.585 1387.500 C 400.602 1405.038, 401.698 1405.017, 394.872 1387.743 L 389.243 1373.500 384.122 1373.198 L 379 1372.895 379 1406.448 M 775.748 1373.694 C 775.506 1374.137, 776.477 1389.125, 777.904 1407 L 780.500 1439.500 786.219 1439.799 L 791.937 1440.098 792.483 1437.799 C 792.783 1436.535, 794.597 1427.663, 796.514 1418.084 C 799.397 1403.674, 801 1397.272, 801 1400.164 C 801 1400.771, 807.753 1434.579, 808.517 1437.799 L 809.063 1440.098 814.781 1439.799 L 820.500 1439.500 822.662 1412.500 C 823.850 1397.650, 824.975 1382.800, 825.162 1379.500 L 825.500 1373.500 822.320 1373.192 L 819.140 1372.884 818.590 1377.192 C 817.926 1382.397, 814.987 1424.293, 814.995 1428.450 C 815.005 1434.389, 813.229 1429.182, 810.066 1414 C 808.290 1405.475, 806.406 1396.813, 805.880 1394.750 L 804.923 1391 800.530 1391 L 796.136 1391 794.548 1398.250 C 789.329 1422.068, 787.156 1431.442, 786.954 1431 C 786.829 1430.725, 785.775 1417.675, 784.613 1402 L 782.500 1373.500 779.344 1373.194 C 777.608 1373.025, 775.990 1373.250, 775.748 1373.694 M 1009.750 1373.549 C 1009.337 1373.980, 1009 1389.160, 1009 1407.282 L 1009 1440.232 1022.250 1439.812 C 1031.857 1439.508, 1036.325 1438.950, 1038.500 1437.785 C 1056.729 1428.022, 1056.908 1385.136, 1038.759 1375.877 C 1034.433 1373.670, 1011.402 1371.822, 1009.750 1373.549 M 1591.714 1373.619 C 1591.321 1374.012, 1591 1377.810, 1591 1382.060 C 1591 1391.025, 1591.027 1391, 1581.418 1391 L 1575 1391 1575 1394 L 1575 1397 1582.938 1397 L 1590.876 1397 1591.188 1415.480 L 1591.500 1433.959 1594.270 1436.730 L 1597.040 1439.500 1609.020 1439.834 L 1621 1440.167 1621 1436.584 L 1621 1433 1610 1433 L 1599 1433 1599 1415 L 1599 1397 1610 1397 L 1621 1397 1621 1394 L 1621 1391 1610.039 1391 L 1599.078 1391 1598.789 1382.250 L 1598.500 1373.500 1595.464 1373.203 C 1593.794 1373.039, 1592.107 1373.227, 1591.714 1373.619 M 1017.667 1380.667 C 1017.300 1381.033, 1017 1392.958, 1017 1407.167 L 1017 1433 1023.750 1432.978 C 1033.348 1432.947, 1038.034 1430.618, 1041.081 1424.363 L 1043.451 1419.500 1043.356 1406.500 C 1043.227 1388.963, 1040.451 1383.053, 1031.347 1380.940 C 1026.794 1379.884, 1018.613 1379.720, 1017.667 1380.667 M 448.500 1391.662 C 430.207 1401.305, 432.166 1434.587, 451.343 1439.956 C 470.378 1445.285, 485.044 1427.087, 479.029 1405.602 C 475.531 1393.109, 459.575 1385.823, 448.500 1391.662 M 562.121 1392.115 C 544.604 1401, 546.993 1434.741, 565.503 1439.879 C 578.746 1443.556, 597.840 1434.147, 590.007 1427.805 L 587.561 1425.824 585.670 1428.162 C 576.580 1439.399, 558 1433.706, 558 1419.684 L 558 1417 576 1417 L 594 1417 594 1411.696 C 594 1395.239, 576.796 1384.672, 562.121 1392.115 M 678.995 1393.769 L 675 1397.765 675 1394.382 L 675 1391 671 1391 L 667 1391 667 1415.500 L 667 1440 671 1440 L 675 1440 675 1421.174 L 675 1402.349 677.340 1400.150 C 690.376 1387.904, 698.875 1397.773, 698.956 1425.250 L 699 1440 702.500 1440 L 706 1440 706 1421.468 C 706 1395.704, 703.557 1390.936, 689.962 1390.168 L 682.991 1389.774 678.995 1393.769 M 847.842 1392.021 C 829.953 1401.472, 832.002 1433.535, 850.899 1439.862 C 863.274 1444.005, 884.666 1433.369, 875.202 1427.778 L 872.403 1426.125 871.173 1428.095 C 864.166 1439.315, 845.104 1434.369, 843.833 1421 L 843.500 1417.500 861.750 1417.227 L 880 1416.955 880 1414.527 C 880 1396.216, 862.751 1384.144, 847.842 1392.021 M 1076.384 1391.913 C 1055.559 1401.370, 1061.537 1438.356, 1084.268 1440.684 C 1096.515 1441.939, 1110.696 1432.307, 1103.522 1427.606 L 1101.043 1425.982 1097.649 1429.686 L 1094.255 1433.389 1087.878 1433.749 C 1077.949 1434.309, 1072 1429.170, 1072 1420.032 L 1072 1417 1090 1417 L 1108 1417 1108 1413.443 C 1108 1395.824, 1091.906 1384.864, 1076.384 1391.913 M 1190.142 1392.159 C 1172.313 1400.984, 1174.840 1434.696, 1193.723 1439.940 C 1206.872 1443.591, 1226.445 1433.453, 1217.527 1427.609 L 1215.053 1425.989 1213.468 1428.408 C 1206.113 1439.634, 1186 1433.550, 1186 1420.099 L 1186 1417 1204 1417 L 1222 1417 1221.994 1412.750 C 1221.971 1395.273, 1205.440 1384.586, 1190.142 1392.159 M 1303.871 1392.006 C 1287.642 1400.582, 1287.922 1430.301, 1304.309 1438.467 C 1323.990 1448.274, 1341.629 1428.810, 1334.928 1404.679 C 1331.594 1392.672, 1315.240 1385.998, 1303.871 1392.006 M 1367.500 1391.162 C 1366.400 1391.768, 1364.037 1393.642, 1362.250 1395.328 L 1359 1398.392 1359 1394.696 L 1359 1391 1355.500 1391 L 1352 1391 1352 1425 L 1352 1459 1355.500 1459 L 1359 1459 1359 1445.429 L 1359 1431.858 1362.331 1435.389 C 1372.450 1446.119, 1388.239 1441.304, 1392.646 1426.144 C 1399.037 1404.161, 1383.400 1382.407, 1367.500 1391.162 M 1414.589 1393.077 L 1412 1396.153 1412 1393.577 C 1412 1391.299, 1411.594 1391, 1408.500 1391 L 1405 1391 1405 1415.500 L 1405 1440 1408.500 1440 L 1412 1440 1412 1420 L 1412 1400 1414 1398 C 1416.425 1395.575, 1421.249 1395.391, 1423.128 1397.651 C 1424.166 1398.901, 1424.579 1404.254, 1424.824 1419.651 L 1425.147 1440 1428.574 1440 L 1432 1440 1432 1420 L 1432 1400 1434.059 1397.941 C 1441.699 1390.301, 1444.868 1397.234, 1444.944 1421.750 L 1445 1440 1448.500 1440 L 1452 1440 1452 1421.549 C 1452 1394.117, 1450.591 1390, 1441.201 1390 C 1437.656 1390, 1436.264 1390.582, 1433.716 1393.130 C 1431.704 1395.142, 1430.437 1395.812, 1430.168 1395.005 C 1428.226 1389.177, 1418.847 1388.016, 1414.589 1393.077 M 1476.500 1391.513 C 1452.701 1404.274, 1462.711 1443.800, 1488.955 1440.692 C 1497.898 1439.633, 1508.847 1431.506, 1504.892 1428.863 C 1500.664 1426.038, 1500.222 1426.012, 1498.593 1428.499 C 1490.969 1440.135, 1471.051 1433.096, 1471.006 1418.750 L 1471 1417 1489.615 1417 L 1508.230 1417 1507.523 1411.250 C 1505.507 1394.851, 1489.394 1384.599, 1476.500 1391.513 M 1538.418 1390.969 C 1537.274 1391.432, 1535.136 1393.238, 1533.668 1394.982 L 1531 1398.153 1531 1394.577 L 1531 1391 1527 1391 L 1523 1391 1523 1415.500 L 1523 1440 1527 1440 L 1531 1440 1531 1421.635 L 1531 1403.270 1533.054 1400.659 C 1536.853 1395.829, 1546.467 1394.991, 1550.882 1399.105 C 1554.114 1402.116, 1554.988 1407.463, 1554.994 1424.250 L 1555 1440 1558.500 1440 L 1562 1440 1562 1421.157 L 1562 1402.315 1559.725 1398.013 C 1556.084 1391.127, 1546.148 1387.842, 1538.418 1390.969 M 608 1394 L 608 1397 615 1397 L 622 1397 622 1415 L 622 1433 615 1433 L 608 1433 608 1436.500 L 608 1440 628.500 1440 L 649 1440 649 1436.500 L 649 1433 639.500 1433 L 630 1433 630.002 1421.250 C 630.004 1403.304, 632.843 1399.311, 646.324 1398.292 L 654 1397.711 654 1394.356 L 654 1391 647.950 1391 C 639.579 1391, 633.723 1394.480, 631.123 1401.001 C 630.295 1403.078, 630.116 1402.445, 630.063 1397.250 L 630 1391 619 1391 L 608 1391 608 1394 M 1121 1391.559 C 1121 1391.866, 1124.426 1401.653, 1128.613 1413.309 C 1132.800 1424.964, 1136.670 1435.737, 1137.211 1437.250 L 1138.196 1440 1142.971 1440 L 1147.747 1440 1155.741 1417.750 C 1160.138 1405.513, 1164.060 1394.458, 1164.456 1393.184 L 1165.176 1390.869 1161.433 1391.184 L 1157.690 1391.500 1150.432 1412.500 C 1144.059 1430.939, 1143.052 1433.195, 1142.172 1431 C 1141.621 1429.625, 1138.320 1420.063, 1134.835 1409.750 L 1128.500 1391 1124.750 1391 C 1122.688 1391, 1121 1391.251, 1121 1391.559 M 451.424 1397.840 C 437.263 1404.463, 442.016 1432.833, 457.451 1433.816 L 463.790 1434.220 467.645 1430.687 L 471.500 1427.155 471.856 1417.903 C 472.554 1399.775, 464.403 1391.771, 451.424 1397.840 M 510.256 1396.953 C 498.343 1399.861, 496.495 1427.211, 507.847 1432.598 C 513.293 1435.182, 520.662 1434.061, 524.191 1430.113 L 527 1426.968 527 1414.907 L 527 1402.846 524.077 1399.923 C 522.469 1398.315, 520.332 1396.994, 519.327 1396.986 C 518.322 1396.979, 516.600 1396.790, 515.500 1396.567 C 514.400 1396.344, 512.040 1396.517, 510.256 1396.953 M 565.304 1397.956 C 561.488 1400.283, 559.259 1403.457, 558.390 1407.802 L 557.750 1411 571.875 1411 L 586 1411 586 1408.968 C 586 1399.030, 574.008 1392.649, 565.304 1397.956 M 851.299 1397.567 C 847.582 1399.466, 845.013 1403.008, 843.957 1407.691 L 843.211 1411 857.471 1411 L 871.731 1411 870.978 1406.882 C 869.383 1398.156, 859.398 1393.430, 851.299 1397.567 M 911.016 1397.014 C 909.100 1397.470, 906.512 1399.029, 905.266 1400.477 L 903 1403.112 903 1415.122 C 903 1430.869, 905.038 1434.020, 915.200 1433.985 C 925.055 1433.951, 929 1428.739, 929 1415.753 C 929 1400.462, 922.963 1394.172, 911.016 1397.014 M 1079.241 1397.995 C 1075.499 1400.276, 1072.009 1405.462, 1072.004 1408.750 L 1072 1411 1086 1411 L 1100 1411 1099.978 1409.250 C 1099.853 1399.302, 1087.814 1392.767, 1079.241 1397.995 M 1193.241 1397.995 C 1189.499 1400.276, 1186.009 1405.462, 1186.004 1408.750 L 1186 1411 1200.131 1411 L 1214.262 1411 1213.707 1407.581 C 1212.126 1397.839, 1201.590 1392.904, 1193.241 1397.995 M 1307.333 1398.008 C 1297.656 1402.928, 1296.869 1426.292, 1306.190 1431.974 C 1318.307 1439.362, 1328.003 1431.747, 1327.996 1414.849 C 1327.990 1398.807, 1319.450 1391.848, 1307.333 1398.008 M 1367.445 1397.071 C 1357.494 1399.955, 1354.912 1425.646, 1363.960 1431.750 C 1374.958 1439.169, 1385.148 1432.041, 1385.762 1416.500 C 1386.361 1401.306, 1379.166 1393.673, 1367.445 1397.071 M 1479.034 1397.752 C 1475.456 1399.556, 1472.643 1403.457, 1471.461 1408.250 L 1470.783 1411 1484.892 1411 L 1499 1411 1498.996 1408.250 C 1498.984 1399.040, 1487.966 1393.246, 1479.034 1397.752" stroke="none" fill="#04faac" fill-rule="evenodd"/><path d="M 953 1.009 C 151.701 42.309, -280.141 961.463, 201.518 1600.504 C 665.379 2215.932, 1624.589 2095.276, 1922.701 1384 C 2204.680 711.215, 1680.422 -36.484, 953 1.009 M 616.763 541.033 C 609.323 542.286, 602.502 544.854, 598.050 548.079 C 588.086 555.297, 490.792 637.419, 487.673 641.244 C 482.174 647.988, 482.041 648.316, 441.442 755 C 393.030 882.214, 388.376 896.075, 381.834 932.500 L 379.500 945.500 379.500 1066.500 L 379.500 1187.500 381.810 1193.218 C 384.526 1199.941, 390.727 1205.929, 397.805 1208.663 L 402.500 1210.477 469 1210.806 C 556.732 1211.241, 538.245 1217.841, 605.500 1162.074 C 672.627 1106.414, 668.791 1110.971, 669.754 1085.750 L 670.280 1072 681.140 1072 L 692 1072 692 1127.395 L 692 1182.789 693.976 1189.186 C 697.409 1200.301, 705.405 1207.246, 717.799 1209.876 C 726.820 1211.790, 853.984 1211.416, 861.519 1209.453 C 873.843 1206.243, 980.055 1117.961, 985.152 1106.691 L 987.500 1101.500 987.500 981 C 987.500 850.840, 987.713 856.601, 981.903 829.839 C 975.588 800.749, 971.403 788.957, 917.547 648.500 C 877.506 544.070, 879.077 546.727, 854.227 541.460 C 846.699 539.865, 626.058 539.468, 616.763 541.033 M 1174.270 541.028 C 1165.413 542.830, 1160.591 546.424, 1111.988 587.445 C 1053.722 636.622, 1053.421 636.896, 1050.084 644 L 1047.500 649.500 1047.500 919 L 1047.500 1188.500 1050.093 1194 C 1053.424 1201.063, 1057.972 1205.429, 1064.938 1208.249 L 1070.500 1210.500 1140 1210.817 C 1213.300 1211.152, 1216.530 1210.991, 1224.500 1206.612 C 1241.368 1197.345, 1337.912 1113.407, 1341.119 1105.220 L 1343.360 1099.500 1343.782 1075.276 L 1344.204 1051.052 1347.352 1050.578 C 1349.083 1050.318, 1355 1049.839, 1360.500 1049.515 C 1398.317 1047.287, 1438.517 1034.691, 1462.263 1017.631 C 1474.311 1008.976, 1577.044 923.122, 1583.789 916.073 C 1604.377 894.555, 1616.247 865.016, 1620.042 825.849 C 1621.903 806.647, 1620.778 678.096, 1618.639 665.500 C 1605.808 589.934, 1563.355 554.037, 1473 542.352 L 1459.500 540.606 1319 540.387 C 1241.725 540.266, 1176.596 540.555, 1174.270 541.028 M 616 549.362 C 603.070 552.171, 594.457 559.523, 589.178 572.258 C 580.812 592.440, 512.981 770.877, 507.926 786 C 501.274 805.901, 495.129 828.935, 491.785 846.500 L 489.500 858.500 489.500 979.500 L 489.500 1100.500 491.653 1104.500 C 494.357 1109.524, 497.427 1112.408, 502.514 1114.702 L 506.500 1116.500 572.877 1116.784 C 653.348 1117.129, 652.721 1117.221, 658.878 1104.091 L 661.500 1098.500 661.794 1038.250 L 662.088 978 732.044 978 L 802 978 802 1036.818 C 802 1124.935, 792.473 1116.500, 892 1116.500 C 973.183 1116.500, 970.761 1116.837, 977.294 1104.624 L 979.500 1100.500 979.500 980 L 979.500 859.500 977.160 846.500 C 970.510 809.553, 967.354 800.279, 914.537 662.500 C 871.033 549.015, 873.842 554.240, 853.800 549.515 C 845.422 547.540, 625.041 547.398, 616 549.362 M 1173.939 549.342 C 1154.306 554.735, 1155.904 528.588, 1156.229 839 L 1156.500 1097.500 1158.269 1102.031 C 1160.554 1107.881, 1164.179 1111.726, 1169.907 1114.376 L 1174.500 1116.500 1246 1116.500 C 1322.225 1116.500, 1320.193 1116.621, 1327.378 1111.666 C 1328.961 1110.574, 1331.436 1107.165, 1332.878 1104.091 L 1335.500 1098.500 1335.782 1027.750 L 1336.064 957 1392.978 957 C 1473.239 957, 1497.582 954.398, 1529.801 942.375 C 1576.569 924.923, 1605.342 884.340, 1611.955 826.500 C 1613.716 811.096, 1613.313 689.489, 1611.454 675.301 C 1601.492 599.282, 1559.932 561.501, 1474 550.346 L 1460.500 548.593 1319.500 548.341 C 1208.985 548.143, 1177.514 548.360, 1173.939 549.342 M 680.470 620.458 C 655.677 624.963, 652.226 630.718, 611.205 736 C 569.586 842.818, 571.701 830.345, 572.205 966 L 572.500 1045.500 576.250 1045.810 L 580 1046.121 580 978.060 L 580 910 734.500 910 L 889 910 889 978 L 889 1046 892.537 1046 L 896.074 1046 895.759 947.750 L 895.444 849.500 893.228 838.350 C 888.724 815.688, 884.721 804.826, 854.961 734.500 C 809.763 627.693, 807.433 623.988, 783 620.060 C 773.335 618.506, 689.418 618.832, 680.470 620.458 M 1245 832.500 L 1245 1046 1249 1046 L 1253 1046 1253 968.051 L 1253 890.101 1349.250 889.720 L 1445.500 889.338 1456.500 887.230 C 1519.927 875.071, 1533.500 851.851, 1533.500 755.500 L 1533.500 703.500 1531.178 692.031 C 1524.056 656.857, 1507.047 637.586, 1473.500 626.683 C 1451.825 619.639, 1440.652 619.019, 1335.250 619.009 L 1245 619 1245 832.500 M 681.369 628.493 C 660.509 633.029, 658.142 637.162, 619.215 737 C 582.579 830.964, 581.689 834.230, 580.340 879.750 L 579.681 902 734.340 902 L 889 902 888.991 891.750 C 888.966 862.523, 885.864 837.621, 879.493 815.500 C 876.760 806.008, 824.524 681.306, 815.404 662.500 C 804.430 639.870, 797.391 632.045, 785.124 628.844 C 776.373 626.560, 691.574 626.273, 681.369 628.493 M 1253 754.491 L 1253 882.085 1348.750 881.758 L 1444.500 881.431 1454 879.630 C 1512.939 868.456, 1526.003 846.028, 1525.997 756.026 C 1525.992 676.732, 1518.221 655.810, 1482.500 638.924 C 1459.301 627.957, 1457.066 627.765, 1347.250 627.298 L 1253 626.897 1253 754.491 M 1334 755.500 L 1334 815 1373.790 815 C 1439.593 815, 1443.015 812.059, 1442.992 755.526 C 1442.970 698.799, 1439.773 696.031, 1374.250 696.012 L 1334 696 1334 755.500 M 714.028 703.630 C 712.308 705.077, 709.862 708.339, 708.592 710.880 C 706.189 715.686, 669.602 832.935, 670.291 833.624 C 670.506 833.839, 698.333 833.899, 732.129 833.758 L 793.577 833.500 774.998 773.445 C 751.079 696.131, 754.028 701, 731.126 701 L 717.153 701 714.028 703.630 M 527 1383.545 L 527 1398.212 524.117 1395.126 C 514.612 1384.950, 498.642 1389.377, 493.906 1403.500 C 485.423 1428.796, 508.363 1453.156, 523.950 1435.404 L 527 1431.930 527 1435.965 L 527 1440 531.013 1440 L 535.026 1440 534.763 1404.750 L 534.500 1369.500 530.750 1369.190 L 527 1368.879 527 1383.545 M 895.714 1369.619 C 895.321 1370.012, 895 1386.008, 895 1405.167 L 895 1440 899 1440 L 903 1440 903 1435.923 L 903 1431.847 905.703 1435.059 C 920.950 1453.179, 943.668 1429.988, 936.048 1404.082 C 931.732 1389.406, 911.587 1384.320, 904.814 1396.196 C 903.669 1398.203, 903.435 1396.629, 903 1384 L 902.500 1369.500 899.464 1369.203 C 897.794 1369.039, 896.107 1369.227, 895.714 1369.619 M 1236.667 1369.667 C 1236.300 1370.033, 1236 1371.608, 1236 1373.167 L 1236 1376 1244.500 1376 L 1253 1376 1253 1404.500 L 1253 1433 1244.500 1433 L 1236 1433 1236 1436.500 L 1236 1440 1257 1440 L 1278 1440 1278 1436.500 L 1278 1433 1269.500 1433 L 1261 1433 1261 1401 L 1261 1369 1249.167 1369 C 1242.658 1369, 1237.033 1369.300, 1236.667 1369.667 M 379 1406.448 L 379 1440 382.500 1440 L 386 1440 386 1412.800 C 386 1396.254, 386.360 1385.972, 386.918 1386.550 C 387.424 1387.072, 390.747 1394.654, 394.304 1403.397 C 399.644 1416.522, 400.947 1418.964, 401.773 1417.397 C 402.324 1416.354, 405.329 1409.200, 408.451 1401.500 C 411.573 1393.800, 414.548 1387.072, 415.063 1386.550 C 415.646 1385.959, 416 1395.885, 416 1412.800 L 416 1440 419.500 1440 L 423 1440 423 1406.500 L 423 1373 418.179 1373 L 413.359 1373 407.585 1387.500 C 400.602 1405.038, 401.698 1405.017, 394.872 1387.743 L 389.243 1373.500 384.122 1373.198 L 379 1372.895 379 1406.448 M 775.748 1373.694 C 775.506 1374.137, 776.477 1389.125, 777.904 1407 L 780.500 1439.500 786.219 1439.799 L 791.937 1440.098 792.483 1437.799 C 792.783 1436.535, 794.597 1427.663, 796.514 1418.084 C 799.397 1403.674, 801 1397.272, 801 1400.164 C 801 1400.771, 807.753 1434.579, 808.517 1437.799 L 809.063 1440.098 814.781 1439.799 L 820.500 1439.500 822.662 1412.500 C 823.850 1397.650, 824.975 1382.800, 825.162 1379.500 L 825.500 1373.500 822.320 1373.192 L 819.140 1372.884 818.590 1377.192 C 817.926 1382.397, 814.987 1424.293, 814.995 1428.450 C 815.005 1434.389, 813.229 1429.182, 810.066 1414 C 808.290 1405.475, 806.406 1396.813, 805.880 1394.750 L 804.923 1391 800.530 1391 L 796.136 1391 794.548 1398.250 C 789.329 1422.068, 787.156 1431.442, 786.954 1431 C 786.829 1430.725, 785.775 1417.675, 784.613 1402 L 782.500 1373.500 779.344 1373.194 C 777.608 1373.025, 775.990 1373.250, 775.748 1373.694 M 1009.750 1373.549 C 1009.337 1373.980, 1009 1389.160, 1009 1407.282 L 1009 1440.232 1022.250 1439.812 C 1031.857 1439.508, 1036.325 1438.950, 1038.500 1437.785 C 1056.729 1428.022, 1056.908 1385.136, 1038.759 1375.877 C 1034.433 1373.670, 1011.402 1371.822, 1009.750 1373.549 M 1591.714 1373.619 C 1591.321 1374.012, 1591 1377.810, 1591 1382.060 C 1591 1391.025, 1591.027 1391, 1581.418 1391 L 1575 1391 1575 1394 L 1575 1397 1582.938 1397 L 1590.876 1397 1591.188 1415.480 L 1591.500 1433.959 1594.270 1436.730 L 1597.040 1439.500 1609.020 1439.834 L 1621 1440.167 1621 1436.584 L 1621 1433 1610 1433 L 1599 1433 1599 1415 L 1599 1397 1610 1397 L 1621 1397 1621 1394 L 1621 1391 1610.039 1391 L 1599.078 1391 1598.789 1382.250 L 1598.500 1373.500 1595.464 1373.203 C 1593.794 1373.039, 1592.107 1373.227, 1591.714 1373.619 M 1017.667 1380.667 C 1017.300 1381.033, 1017 1392.958, 1017 1407.167 L 1017 1433 1023.750 1432.978 C 1033.348 1432.947, 1038.034 1430.618, 1041.081 1424.363 L 1043.451 1419.500 1043.356 1406.500 C 1043.227 1388.963, 1040.451 1383.053, 1031.347 1380.940 C 1026.794 1379.884, 1018.613 1379.720, 1017.667 1380.667 M 448.500 1391.662 C 430.207 1401.305, 432.166 1434.587, 451.343 1439.956 C 470.378 1445.285, 485.044 1427.087, 479.029 1405.602 C 475.531 1393.109, 459.575 1385.823, 448.500 1391.662 M 562.121 1392.115 C 544.604 1401, 546.993 1434.741, 565.503 1439.879 C 578.746 1443.556, 597.840 1434.147, 590.007 1427.805 L 587.561 1425.824 585.670 1428.162 C 576.580 1439.399, 558 1433.706, 558 1419.684 L 558 1417 576 1417 L 594 1417 594 1411.696 C 594 1395.239, 576.796 1384.672, 562.121 1392.115 M 678.995 1393.769 L 675 1397.765 675 1394.382 L 675 1391 671 1391 L 667 1391 667 1415.500 L 667 1440 671 1440 L 675 1440 675 1421.174 L 675 1402.349 677.340 1400.150 C 690.376 1387.904, 698.875 1397.773, 698.956 1425.250 L 699 1440 702.500 1440 L 706 1440 706 1421.468 C 706 1395.704, 703.557 1390.936, 689.962 1390.168 L 682.991 1389.774 678.995 1393.769 M 847.842 1392.021 C 829.953 1401.472, 832.002 1433.535, 850.899 1439.862 C 863.274 1444.005, 884.666 1433.369, 875.202 1427.778 L 872.403 1426.125 871.173 1428.095 C 864.166 1439.315, 845.104 1434.369, 843.833 1421 L 843.500 1417.500 861.750 1417.227 L 880 1416.955 880 1414.527 C 880 1396.216, 862.751 1384.144, 847.842 1392.021 M 1076.384 1391.913 C 1055.559 1401.370, 1061.537 1438.356, 1084.268 1440.684 C 1096.515 1441.939, 1110.696 1432.307, 1103.522 1427.606 L 1101.043 1425.982 1097.649 1429.686 L 1094.255 1433.389 1087.878 1433.749 C 1077.949 1434.309, 1072 1429.170, 1072 1420.032 L 1072 1417 1090 1417 L 1108 1417 1108 1413.443 C 1108 1395.824, 1091.906 1384.864, 1076.384 1391.913 M 1190.142 1392.159 C 1172.313 1400.984, 1174.840 1434.696, 1193.723 1439.940 C 1206.872 1443.591, 1226.445 1433.453, 1217.527 1427.609 L 1215.053 1425.989 1213.468 1428.408 C 1206.113 1439.634, 1186 1433.550, 1186 1420.099 L 1186 1417 1204 1417 L 1222 1417 1221.994 1412.750 C 1221.971 1395.273, 1205.440 1384.586, 1190.142 1392.159 M 1303.871 1392.006 C 1287.642 1400.582, 1287.922 1430.301, 1304.309 1438.467 C 1323.990 1448.274, 1341.629 1428.810, 1334.928 1404.679 C 1331.594 1392.672, 1315.240 1385.998, 1303.871 1392.006 M 1367.500 1391.162 C 1366.400 1391.768, 1364.037 1393.642, 1362.250 1395.328 L 1359 1398.392 1359 1394.696 L 1359 1391 1355.500 1391 L 1352 1391 1352 1425 L 1352 1459 1355.500 1459 L 1359 1459 1359 1445.429 L 1359 1431.858 1362.331 1435.389 C 1372.450 1446.119, 1388.239 1441.304, 1392.646 1426.144 C 1399.037 1404.161, 1383.400 1382.407, 1367.500 1391.162 M 1414.589 1393.077 L 1412 1396.153 1412 1393.577 C 1412 1391.299, 1411.594 1391, 1408.500 1391 L 1405 1391 1405 1415.500 L 1405 1440 1408.500 1440 L 1412 1440 1412 1420 L 1412 1400 1414 1398 C 1416.425 1395.575, 1421.249 1395.391, 1423.128 1397.651 C 1424.166 1398.901, 1424.579 1404.254, 1424.824 1419.651 L 1425.147 1440 1428.574 1440 L 1432 1440 1432 1420 L 1432 1400 1434.059 1397.941 C 1441.699 1390.301, 1444.868 1397.234, 1444.944 1421.750 L 1445 1440 1448.500 1440 L 1452 1440 1452 1421.549 C 1452 1394.117, 1450.591 1390, 1441.201 1390 C 1437.656 1390, 1436.264 1390.582, 1433.716 1393.130 C 1431.704 1395.142, 1430.437 1395.812, 1430.168 1395.005 C 1428.226 1389.177, 1418.847 1388.016, 1414.589 1393.077 M 1476.500 1391.513 C 1452.701 1404.274, 1462.711 1443.800, 1488.955 1440.692 C 1497.898 1439.633, 1508.847 1431.506, 1504.892 1428.863 C 1500.664 1426.038, 1500.222 1426.012, 1498.593 1428.499 C 1490.969 1440.135, 1471.051 1433.096, 1471.006 1418.750 L 1471 1417 1489.615 1417 L 1508.230 1417 1507.523 1411.250 C 1505.507 1394.851, 1489.394 1384.599, 1476.500 1391.513 M 1538.418 1390.969 C 1537.274 1391.432, 1535.136 1393.238, 1533.668 1394.982 L 1531 1398.153 1531 1394.577 L 1531 1391 1527 1391 L 1523 1391 1523 1415.500 L 1523 1440 1527 1440 L 1531 1440 1531 1421.635 L 1531 1403.270 1533.054 1400.659 C 1536.853 1395.829, 1546.467 1394.991, 1550.882 1399.105 C 1554.114 1402.116, 1554.988 1407.463, 1554.994 1424.250 L 1555 1440 1558.500 1440 L 1562 1440 1562 1421.157 L 1562 1402.315 1559.725 1398.013 C 1556.084 1391.127, 1546.148 1387.842, 1538.418 1390.969 M 608 1394 L 608 1397 615 1397 L 622 1397 622 1415 L 622 1433 615 1433 L 608 1433 608 1436.500 L 608 1440 628.500 1440 L 649 1440 649 1436.500 L 649 1433 639.500 1433 L 630 1433 630.002 1421.250 C 630.004 1403.304, 632.843 1399.311, 646.324 1398.292 L 654 1397.711 654 1394.356 L 654 1391 647.950 1391 C 639.579 1391, 633.723 1394.480, 631.123 1401.001 C 630.295 1403.078, 630.116 1402.445, 630.063 1397.250 L 630 1391 619 1391 L 608 1391 608 1394 M 1121 1391.559 C 1121 1391.866, 1124.426 1401.653, 1128.613 1413.309 C 1132.800 1424.964, 1136.670 1435.737, 1137.211 1437.250 L 1138.196 1440 1142.971 1440 L 1147.747 1440 1155.741 1417.750 C 1160.138 1405.513, 1164.060 1394.458, 1164.456 1393.184 L 1165.176 1390.869 1161.433 1391.184 L 1157.690 1391.500 1150.432 1412.500 C 1144.059 1430.939, 1143.052 1433.195, 1142.172 1431 C 1141.621 1429.625, 1138.320 1420.063, 1134.835 1409.750 L 1128.500 1391 1124.750 1391 C 1122.688 1391, 1121 1391.251, 1121 1391.559 M 451.424 1397.840 C 437.263 1404.463, 442.016 1432.833, 457.451 1433.816 L 463.790 1434.220 467.645 1430.687 L 471.500 1427.155 471.856 1417.903 C 472.554 1399.775, 464.403 1391.771, 451.424 1397.840 M 510.256 1396.953 C 498.343 1399.861, 496.495 1427.211, 507.847 1432.598 C 513.293 1435.182, 520.662 1434.061, 524.191 1430.113 L 527 1426.968 527 1414.907 L 527 1402.846 524.077 1399.923 C 522.469 1398.315, 520.332 1396.994, 519.327 1396.986 C 518.322 1396.979, 516.600 1396.790, 515.500 1396.567 C 514.400 1396.344, 512.040 1396.517, 510.256 1396.953 M 565.304 1397.956 C 561.488 1400.283, 559.259 1403.457, 558.390 1407.802 L 557.750 1411 571.875 1411 L 586 1411 586 1408.968 C 586 1399.030, 574.008 1392.649, 565.304 1397.956 M 851.299 1397.567 C 847.582 1399.466, 845.013 1403.008, 843.957 1407.691 L 843.211 1411 857.471 1411 L 871.731 1411 870.978 1406.882 C 869.383 1398.156, 859.398 1393.430, 851.299 1397.567 M 911.016 1397.014 C 909.100 1397.470, 906.512 1399.029, 905.266 1400.477 L 903 1403.112 903 1415.122 C 903 1430.869, 905.038 1434.020, 915.200 1433.985 C 925.055 1433.951, 929 1428.739, 929 1415.753 C 929 1400.462, 922.963 1394.172, 911.016 1397.014 M 1079.241 1397.995 C 1075.499 1400.276, 1072.009 1405.462, 1072.004 1408.750 L 1072 1411 1086 1411 L 1100 1411 1099.978 1409.250 C 1099.853 1399.302, 1087.814 1392.767, 1079.241 1397.995 M 1193.241 1397.995 C 1189.499 1400.276, 1186.009 1405.462, 1186.004 1408.750 L 1186 1411 1200.131 1411 L 1214.262 1411 1213.707 1407.581 C 1212.126 1397.839, 1201.590 1392.904, 1193.241 1397.995 M 1307.333 1398.008 C 1297.656 1402.928, 1296.869 1426.292, 1306.190 1431.974 C 1318.307 1439.362, 1328.003 1431.747, 1327.996 1414.849 C 1327.990 1398.807, 1319.450 1391.848, 1307.333 1398.008 M 1367.445 1397.071 C 1357.494 1399.955, 1354.912 1425.646, 1363.960 1431.750 C 1374.958 1439.169, 1385.148 1432.041, 1385.762 1416.500 C 1386.361 1401.306, 1379.166 1393.673, 1367.445 1397.071 M 1479.034 1397.752 C 1475.456 1399.556, 1472.643 1403.457, 1471.461 1408.250 L 1470.783 1411 1484.892 1411 L 1499 1411 1498.996 1408.250 C 1498.984 1399.040, 1487.966 1393.246, 1479.034 1397.752" stroke="none" fill="#0414d3" fill-rule="evenodd"/></svg>